<?xml version="1.0" encoding="UTF-8" standalone="no"?>
<!-- Created with Inkscape (http://www.inkscape.org/) -->

<svg
   xmlns:dc="http://purl.org/dc/elements/1.1/"
   xmlns:cc="http://creativecommons.org/ns#"
   xmlns:rdf="http://www.w3.org/1999/02/22-rdf-syntax-ns#"
   xmlns:svg="http://www.w3.org/2000/svg"
   xmlns="http://www.w3.org/2000/svg"
   xmlns:sodipodi="http://sodipodi.sourceforge.net/DTD/sodipodi-0.dtd"
   xmlns:inkscape="http://www.inkscape.org/namespaces/inkscape"
   width="210mm"
   height="297mm"
   viewBox="0 0 210 297"
   version="1.1"
   id="svg8"
   sodipodi:docname="Grafiche.svg"
   inkscape:version="0.92.1 r15371">
  <defs
     id="defs2" />
  <sodipodi:namedview
     id="base"
     pagecolor="#ffffff"
     bordercolor="#666666"
     borderopacity="1.0"
     inkscape:pageopacity="0.0"
     inkscape:pageshadow="2"
     inkscape:zoom="0.49497475"
     inkscape:cx="226.00755"
     inkscape:cy="522.91842"
     inkscape:document-units="mm"
     inkscape:current-layer="g4610"
     showgrid="false"
     inkscape:window-width="1920"
     inkscape:window-height="1017"
     inkscape:window-x="-8"
     inkscape:window-y="-8"
     inkscape:window-maximized="1" />
  <metadata
     id="metadata5">
    <rdf:RDF>
      <cc:Work
         rdf:about="">
        <dc:format>image/svg+xml</dc:format>
        <dc:type
           rdf:resource="http://purl.org/dc/dcmitype/StillImage" />
      </cc:Work>
    </rdf:RDF>
  </metadata>
  <g
     inkscape:label="Livello 1"
     inkscape:groupmode="layer"
     id="layer1">
    <g
       id="g4610">
      <g
         id="g4699"
         transform="translate(0,-110.36905)">
        <path
           style="opacity:1;fill:#502d16;fill-opacity:1;fill-rule:nonzero;stroke:none;stroke-width:5;stroke-linecap:butt;stroke-linejoin:miter;stroke-miterlimit:4;stroke-dasharray:none;stroke-dashoffset:0;stroke-opacity:1;paint-order:fill markers stroke"
           d="m 190.02863,128.08566 c 0,15.10287 -12.15862,27.26149 -27.26149,27.26149 H 40.892235 c -15.102867,0 -27.261492,-12.15862 -27.261492,-27.26149 z"
           id="rect4487"
           inkscape:connector-curvature="0"
           sodipodi:nodetypes="csscc" />
        <path
           style="opacity:1;fill:#000000;fill-opacity:0.3157895;fill-rule:nonzero;stroke:none;stroke-width:5;stroke-linecap:butt;stroke-linejoin:miter;stroke-miterlimit:4;stroke-dasharray:none;stroke-dashoffset:0;stroke-opacity:1;paint-order:fill markers stroke"
           d="m 42.293041,136.46239 a 4.9136906,4.9136906 0 0 1 -4.913691,4.91369 4.9136906,4.9136906 0 0 1 -4.91369,-4.91369 4.9136906,4.9136906 0 0 1 4.91369,-4.91369 4.9136906,4.9136906 0 0 1 4.913691,4.91369 z"
           id="path4490"
           inkscape:connector-curvature="0" />
        <path
           style="opacity:1;fill:#000000;fill-opacity:0.3157895;fill-rule:nonzero;stroke:none;stroke-width:8.3653841;stroke-linecap:butt;stroke-linejoin:miter;stroke-miterlimit:4;stroke-dasharray:none;stroke-dashoffset:0;stroke-opacity:1;paint-order:fill markers stroke"
           d="m 134.70822,140.52565 a 8.2209826,8.2209826 0 0 1 -8.22098,8.22098 8.2209826,8.2209826 0 0 1 -8.22099,-8.22098 8.2209826,8.2209826 0 0 1 8.22099,-8.22098 8.2209826,8.2209826 0 0 1 8.22098,8.22098 z"
           id="path4490-16"
           inkscape:connector-curvature="0" />
        <rect
           style="opacity:1;fill:#445500;fill-opacity:1;fill-rule:nonzero;stroke:none;stroke-width:3.91178679;stroke-linecap:butt;stroke-linejoin:miter;stroke-miterlimit:4;stroke-dasharray:none;stroke-dashoffset:0;stroke-opacity:1;paint-order:fill markers stroke"
           id="rect4485"
           width="191.44495"
           height="12.760146"
           x="7.4868069"
           y="122.91129"
           ry="6.3800731" />
        <path
           style="opacity:1;fill:#000000;fill-opacity:0.3157895;fill-rule:nonzero;stroke:none;stroke-width:5;stroke-linecap:butt;stroke-linejoin:miter;stroke-miterlimit:4;stroke-dasharray:none;stroke-dashoffset:0;stroke-opacity:1;paint-order:fill markers stroke"
           d="m 111.46269,147.23472 a 4.9136906,4.9136906 0 0 1 -4.91369,4.91369 4.9136906,4.9136906 0 0 1 -4.91369,-4.91369 4.9136906,4.9136906 0 0 1 4.91369,-4.91369 4.9136906,4.9136906 0 0 1 4.91369,4.91369 z"
           id="path4490-8"
           inkscape:connector-curvature="0" />
        <path
           inkscape:connector-curvature="0"
           style="opacity:1;fill:#000000;fill-opacity:0.31764706;fill-rule:nonzero;stroke:none;stroke-width:5;stroke-linecap:butt;stroke-linejoin:miter;stroke-miterlimit:4;stroke-dasharray:none;stroke-dashoffset:0;stroke-opacity:1;paint-order:fill markers stroke"
           d="m 81.79129,143.26597 a 10.772322,10.772322 0 0 0 -10.771952,10.77247 10.772322,10.772322 0 0 0 0.09302,1.30844 h 21.36252 a 10.772322,10.772322 0 0 0 0.08888,-1.30844 10.772322,10.772322 0 0 0 -10.772468,-10.77247 z"
           id="rect4487-1" />
        <path
           inkscape:connector-curvature="0"
           style="opacity:1;fill:#000000;fill-opacity:0.31764706;fill-rule:nonzero;stroke:none;stroke-width:5;stroke-linecap:butt;stroke-linejoin:miter;stroke-miterlimit:4;stroke-dasharray:none;stroke-dashoffset:0;stroke-opacity:1;paint-order:fill markers stroke"
           d="m 179.21512,142.69901 a 6.8980656,6.8980656 0 0 0 -6.89829,6.89777 6.8980656,6.8980656 0 0 0 1.03921,3.63182 c 4.31626,-1.81097 8.06072,-4.69843 10.90166,-8.33024 a 6.8980656,6.8980656 0 0 0 -5.04258,-2.19935 z"
           id="rect4487-9" />
        <path
           style="opacity:1;fill:#445500;fill-opacity:1;fill-rule:nonzero;stroke:none;stroke-width:5;stroke-linecap:butt;stroke-linejoin:miter;stroke-miterlimit:4;stroke-dasharray:none;stroke-dashoffset:0;stroke-opacity:1;paint-order:fill markers stroke"
           d="m 50.647576,134.29967 2.672694,6.88219 0.334086,-4.74403 1.80407,10.7576 1.670433,-14.83346 1.069081,4.94449 1.202711,-4.94449 -7.416728,-0.86863 z"
           id="path4594"
           inkscape:connector-curvature="0" />
        <path
           style="opacity:1;fill:#445500;fill-opacity:1;fill-rule:nonzero;stroke:none;stroke-width:5;stroke-linecap:butt;stroke-linejoin:miter;stroke-miterlimit:4;stroke-dasharray:none;stroke-dashoffset:0;stroke-opacity:1;paint-order:fill markers stroke"
           d="m 85.526247,132.89651 0.53454,9.08716 3.340868,-9.88897 1.403167,14.09847 0.668173,-8.8199 0.935443,3.54133 0.53454,-7.95127 -5.545844,-2.87315 z"
           id="path4596"
           inkscape:connector-curvature="0" />
        <path
           style="opacity:1;fill:#445500;fill-opacity:1;fill-rule:nonzero;stroke:none;stroke-width:5;stroke-linecap:butt;stroke-linejoin:miter;stroke-miterlimit:4;stroke-dasharray:none;stroke-dashoffset:0;stroke-opacity:1;paint-order:fill markers stroke"
           d="m 160.5051,132.63539 3.02381,14.55208 -0.0472,-15.59151 5.43341,10.34709 -1.15923,-5.38714 4.70275,0.52069 -6.00037,-2.50409 -3.35454,-5.81138 z"
           id="path4598"
           inkscape:connector-curvature="0"
           sodipodi:nodetypes="ccccccccc" />
      </g>
      <g
         id="g4687"
         transform="translate(0,-110.36905)">
        <rect
           ry="8.0930758"
           y="206.48114"
           x="12.120782"
           height="30.4785"
           width="180.67424"
           id="rect4654"
           style="opacity:1;fill:#502d16;fill-opacity:1;fill-rule:nonzero;stroke:none;stroke-width:2.59496021;stroke-linecap:butt;stroke-linejoin:miter;stroke-miterlimit:4;stroke-dasharray:none;stroke-dashoffset:0;stroke-opacity:1;paint-order:fill markers stroke" />
        <path
           style="opacity:1;fill:#000000;fill-opacity:0.3157895;fill-rule:nonzero;stroke:none;stroke-width:5;stroke-linecap:butt;stroke-linejoin:miter;stroke-miterlimit:4;stroke-dasharray:none;stroke-dashoffset:0;stroke-opacity:1;paint-order:fill markers stroke"
           d="m 75.257585,217.62682 a 4.9136906,4.9136906 0 0 1 -4.913691,4.91369 4.9136906,4.9136906 0 0 1 -4.91369,-4.91369 4.9136906,4.9136906 0 0 1 4.91369,-4.91369 4.9136906,4.9136906 0 0 1 4.913691,4.91369 z"
           id="path4490-0"
           inkscape:connector-curvature="0" />
        <path
           style="opacity:1;fill:#000000;fill-opacity:0.3157895;fill-rule:nonzero;stroke:none;stroke-width:8.3653841;stroke-linecap:butt;stroke-linejoin:miter;stroke-miterlimit:4;stroke-dasharray:none;stroke-dashoffset:0;stroke-opacity:1;paint-order:fill markers stroke"
           d="m 168.60821,221.69008 a 8.2209828,8.2209828 0 0 1 -8.22098,8.22098 8.2209828,8.2209828 0 0 1 -8.22099,-8.22098 8.2209828,8.2209828 0 0 1 8.22099,-8.22098 8.2209828,8.2209828 0 0 1 8.22098,8.22098 z"
           id="path4490-16-3"
           inkscape:connector-curvature="0" />
        <rect
           style="opacity:1;fill:#445500;fill-opacity:1;fill-rule:nonzero;stroke:none;stroke-width:3.91178679;stroke-linecap:butt;stroke-linejoin:miter;stroke-miterlimit:4;stroke-dasharray:none;stroke-dashoffset:0;stroke-opacity:1;paint-order:fill markers stroke"
           id="rect4485-1"
           width="191.44495"
           height="12.760146"
           x="6.6417561"
           y="204.07571"
           ry="6.3800731" />
        <path
           style="opacity:1;fill:#000000;fill-opacity:0.3157895;fill-rule:nonzero;stroke:none;stroke-width:5;stroke-linecap:butt;stroke-linejoin:miter;stroke-miterlimit:4;stroke-dasharray:none;stroke-dashoffset:0;stroke-opacity:1;paint-order:fill markers stroke"
           d="m 35.247634,228.39915 a 4.9136906,4.9136906 0 0 1 -4.91369,4.91369 4.9136906,4.9136906 0 0 1 -4.91369,-4.91369 4.9136906,4.9136906 0 0 1 4.91369,-4.91369 4.9136906,4.9136906 0 0 1 4.91369,4.91369 z"
           id="path4490-8-3"
           inkscape:connector-curvature="0" />
        <path
           inkscape:connector-curvature="0"
           style="opacity:1;fill:#000000;fill-opacity:0.31764706;fill-rule:nonzero;stroke:none;stroke-width:5;stroke-linecap:butt;stroke-linejoin:miter;stroke-miterlimit:4;stroke-dasharray:none;stroke-dashoffset:0;stroke-opacity:1;paint-order:fill markers stroke"
           d="m 109.41044,224.87873 a 10.772322,10.772322 0 0 0 -10.771948,10.77247 10.772322,10.772322 0 0 0 0.09302,1.30844 h 21.362518 a 10.772322,10.772322 0 0 0 0.0889,-1.30844 10.772322,10.772322 0 0 0 -10.77247,-10.77247 z"
           id="rect4487-1-6" />
        <path
           style="opacity:1;fill:#000000;fill-opacity:0.3157895;fill-rule:nonzero;stroke:none;stroke-width:6.00961542;stroke-linecap:butt;stroke-linejoin:miter;stroke-miterlimit:4;stroke-dasharray:none;stroke-dashoffset:0;stroke-opacity:1;paint-order:fill markers stroke"
           d="m 189.93304,225.79874 a 5.9058782,5.9058782 0 0 1 -5.90588,5.90588 5.9058782,5.9058782 0 0 1 -5.90588,-5.90588 5.9058782,5.9058782 0 0 1 5.90588,-5.90588 5.9058782,5.9058782 0 0 1 5.90588,5.90588 z"
           id="path4490-8-3-9"
           inkscape:connector-curvature="0" />
        <path
           sodipodi:nodetypes="cccccccc"
           inkscape:connector-curvature="0"
           id="path4671"
           d="m 33.943229,214.94825 -4.977895,5.51244 4.713001,-3.21575 1.066703,3.8171 0.290197,-3.48301 3.685437,4.61891 -3.207234,-6.68174 z"
           style="opacity:1;fill:#445500;fill-opacity:1;fill-rule:nonzero;stroke:none;stroke-width:5;stroke-linecap:butt;stroke-linejoin:miter;stroke-miterlimit:4;stroke-dasharray:none;stroke-dashoffset:0;stroke-opacity:1;paint-order:fill markers stroke" />
        <path
           inkscape:connector-curvature="0"
           id="path4673"
           d="m 81.116301,214.7478 -2.672696,10.55715 3.140416,-7.41673 0.133636,4.20949 0.868627,-4.94448 0.935442,8.28535 0.06682,-8.15172 3.073598,4.00904 -3.00678,-6.68174 z"
           style="opacity:1;fill:#445500;fill-opacity:1;fill-rule:nonzero;stroke:none;stroke-width:5;stroke-linecap:butt;stroke-linejoin:miter;stroke-miterlimit:4;stroke-dasharray:none;stroke-dashoffset:0;stroke-opacity:1;paint-order:fill markers stroke" />
        <path
           inkscape:connector-curvature="0"
           id="path4675"
           d="m 148.80231,214.41371 1.06908,10.7576 1.13589,-8.21854 0.53454,6.48129 2.20497,-9.42125 2.80633,4.74403 -0.46772,-5.67947 z"
           style="opacity:1;fill:#445500;fill-opacity:1;fill-rule:nonzero;stroke:none;stroke-width:5;stroke-linecap:butt;stroke-linejoin:miter;stroke-miterlimit:4;stroke-dasharray:none;stroke-dashoffset:0;stroke-opacity:1;paint-order:fill markers stroke" />
      </g>
    </g>
  </g>
</svg>
